PathFileType	4	(X/Y/Z)	 s10c0402.trc
DataRate	CameraRate	NumFrames	NumMarkers	Units	OrigDataRate	OrigDataStartFrame	OrigNumFrames
200	200	6	49	mm	200	1501	2000
Frame#	Time	racr			lacr			c7			jug			rlel			rdr			llel			ldr			s2			lic			ric			lasi			rasi			rpsi			lpsi			rgt			lgt			rth1			rth2			rth3			rth4			rlfc			rmfc			rsh1			rsh2			rsh3			rsh4			rlmal			rmmal			rcal			rtoe			rmt5			lth1			lth2			lth4			lth3			llfc			lmfc			llmal			lcal			lmt5			lsh1			lsh2			lsh3			lsh4			ltoe			SBIKE			LBIKE			RBIKE			
		X1	Y1	Z1	X2	Y2	Z2	X3	Y3	Z3	X4	Y4	Z4	X5	Y5	Z5	X6	Y6	Z6	X7	Y7	Z7	X8	Y8	Z8	X9	Y9	Z9	X10	Y10	Z10	X11	Y11	Z11	X12	Y12	Z12	X13	Y13	Z13	X14	Y14	Z14	X15	Y15	Z15	X16	Y16	Z16	X17	Y17	Z17	X18	Y18	Z18	X19	Y19	Z19	X20	Y20	Z20	X21	Y21	Z21	X22	Y22	Z22	X23	Y23	Z23	X24	Y24	Z24	X25	Y25	Z25	X26	Y26	Z26	X27	Y27	Z27	X28	Y28	Z28	X29	Y29	Z29	X30	Y30	Z30	X31	Y31	Z31	X32	Y32	Z32	X33	Y33	Z33	X34	Y34	Z34	X35	Y35	Z35	X36	Y36	Z36	X37	Y37	Z37	X38	Y38	Z38	X39	Y39	Z39	X40	Y40	Z40	X41	Y41	Z41	X42	Y42	Z42	X43	Y43	Z43	X44	Y44	Z44	X45	Y45	Z45	X46	Y46	Z46	X47	Y47	Z47	X48	Y48	Z48	X49	Y49	Z49	
1501	7.5050	719.842183	1331.097755	-41.612269	688.304013	1336.178698	-332.993436	694.033013	1351.978274	-180.578586	676.934842	1205.081322	-183.935839	573.296413	1105.029701	66.368023	627.778954	911.174787	3.646564	566.780584	1104.838420	-458.407021	650.586349	910.352069	-387.752400	158.185426	1164.572459	-217.550241	337.572636	1162.518954	-349.252262	322.681361	1146.784283	-56.590572	355.190315	1070.013620	-325.016184	302.076426	1063.533264	-73.166562	199.735119	1211.629079	-152.616387	219.327585	1217.471992	-260.450905	184.423380	1056.981062	-30.071360	237.214839	1042.333356	-406.705057	257.579357	925.187943	-5.892251	333.414670	878.063813	-10.947298	372.369759	802.232335	-14.933122	359.927327	904.538708	-13.195317	455.830634	720.625480	-29.084648	458.112939	713.654278	-145.349000	382.739722	631.573060	-2.343383	358.071789	547.341606	-16.843961	296.463420	486.878424	-21.735726	383.791107	536.004918	-43.334249	240.658958	392.904184	-39.827295	265.537371	409.376927	-119.000573	181.910572	376.319422	-87.695948	420.003887	327.680116	-80.435868	333.878356	310.595697	-21.035503	292.806218	917.681754	-414.598076	351.057132	855.182015	-398.864904	380.002379	872.540004	-386.078591	369.649316	768.604974	-390.165110	401.158686	660.486785	-371.007127	397.743852	651.204614	-253.947106	82.160256	452.114958	-387.321022	39.512388	488.363564	-339.821735	38.832886	309.415917	-395.969855	292.809516	606.005704	-411.977518	240.982792	536.801163	-397.918943	158.922808	501.261597	-399.875458	258.934483	517.418231	-370.236282	83.731674	238.239377	-335.678268	-167.735901	823.809006	-218.831918	-77.895494	81.953176	-423.501131	-102.634702	80.571467	-24.381499	
1502	7.5100	716.971420	1332.928386	-41.846571	690.044961	1337.474062	-333.935635	693.849553	1352.821088	-180.890664	677.102399	1206.169399	-185.159286	572.626076	1105.594839	65.484984	627.827069	911.281061	3.695709	567.929828	1105.242510	-459.511710	650.860614	910.377700	-388.111052	158.254889	1164.248484	-215.287657	335.848688	1162.697163	-348.493670	325.456541	1145.617548	-57.076998	353.785575	1069.915597	-324.289798	303.594345	1062.019974	-73.204429	200.527663	1211.373100	-150.066804	218.890254	1217.734453	-258.645909	185.956787	1055.972191	-28.563778	236.327706	1042.630127	-404.751635	257.382469	921.911683	-5.010645	331.273408	872.192415	-10.947028	367.955951	795.112104	-15.809499	358.618037	897.584871	-13.794177	447.835987	709.506317	-31.134241	449.224217	702.528179	-146.322405	376.112689	619.252533	-3.764045	352.634256	534.697742	-18.824984	291.976806	473.377310	-23.041705	378.086607	523.976614	-45.865230	237.873375	380.377524	-40.228977	262.355258	397.016803	-119.838928	179.286159	363.354339	-88.115843	417.913875	317.275239	-81.044195	332.318853	299.780924	-20.614904	293.764519	918.928255	-413.196131	353.491711	857.667485	-397.904451	382.209085	875.675215	-385.520579	374.546579	772.098820	-389.643632	408.896041	664.385368	-368.841903	405.184298	656.662360	-250.777902	87.731273	460.836103	-386.701609	46.206240	498.165186	-339.156235	40.322110	319.425559	-395.836048	301.655085	609.606581	-409.181673	249.122107	542.716176	-396.955048	165.860507	507.741771	-398.746568	267.103063	524.092330	-369.077197	83.232960	246.838425	-335.753808	-167.738842	823.842913	-218.772065	-78.192435	82.035739	-423.843656	-102.636118	80.564480	-24.386866	
1503	7.5150	713.925697	1334.777693	-41.971247	691.811053	1338.793464	-334.858976	693.599583	1353.519865	-181.247013	677.136447	1206.934799	-186.053360	571.776941	1106.232327	64.544012	627.771184	911.453072	3.603031	569.172813	1105.669576	-460.635938	651.201417	910.365569	-388.567978	158.539453	1164.400714	-212.906649	334.233079	1162.853055	-348.022763	328.381186	1144.454451	-57.447174	352.131400	1069.663308	-323.595258	306.061003	1060.821242	-71.870325	201.191098	1211.126232	-147.369155	218.367913	1217.805769	-256.839154	187.604542	1054.819723	-27.141447	235.473760	1042.662291	-402.788711	257.398213	918.642475	-3.826442	329.257985	866.251548	-10.960803	363.206965	787.874671	-16.835710	357.554523	890.987608	-13.667282	439.594731	698.503248	-33.280053	439.702122	691.204367	-147.365310	369.291399	606.851770	-5.263335	346.867243	522.372387	-20.563709	287.018949	459.845825	-24.342730	371.903741	512.087497	-48.328069	234.679330	368.451754	-40.636551	259.069665	385.104913	-120.405339	176.214162	350.841106	-88.451225	415.307640	307.253306	-81.161785	329.856594	288.759848	-20.867242	294.597251	920.062939	-411.828673	355.105005	859.684833	-396.060824	384.233806	878.748040	-384.756117	378.443822	774.874561	-388.440841	416.473483	668.613173	-366.846652	411.652539	662.209520	-247.850774	93.355934	469.489250	-385.987744	52.881890	507.579018	-338.526194	42.508969	329.313956	-395.661607	310.435116	613.602881	-407.161219	256.608474	547.791031	-394.797506	172.879877	514.044013	-397.602368	273.933256	529.173592	-366.435956	83.464181	255.464475	-335.741436	-167.711534	823.803860	-218.796481	-78.217834	82.004085	-423.778354	-102.633504	80.575628	-24.384423	
1504	7.5200	710.733280	1336.615769	-41.886096	693.588072	1339.943494	-335.748683	693.262851	1354.290644	-181.561990	677.237776	1207.811503	-187.205964	570.950604	1106.865160	63.991060	627.750353	911.583607	3.582552	570.474103	1106.151570	-461.746626	651.608814	910.403145	-389.293623	158.740106	1164.350622	-210.504977	332.543583	1162.627713	-347.447129	331.112192	1143.158724	-58.153972	350.568558	1069.176780	-322.960184	308.328110	1059.302778	-71.135105	201.570351	1210.794459	-144.678525	217.876501	1217.509646	-255.249810	189.510888	1053.283375	-25.576667	234.522446	1042.477290	-400.891146	257.459744	914.980519	-2.940090	327.311456	860.055275	-11.028083	358.421357	780.523630	-17.944335	356.502927	883.772604	-14.030272	430.930352	687.710552	-35.420128	428.821510	680.062491	-148.767614	361.921514	594.805652	-6.841598	340.553894	510.041481	-22.453927	281.538102	446.828902	-25.333584	365.403473	500.364187	-50.535202	230.993404	356.615728	-41.203483	253.893368	372.736333	-121.883623	172.745183	338.732933	-88.867963	412.301537	297.087671	-81.337901	326.861355	278.132166	-21.067173	295.356602	921.027221	-410.642214	357.222261	861.920099	-394.956910	386.075028	881.578007	-383.719599	382.439480	777.656919	-387.364446	423.995858	672.856907	-364.957159	417.553894	667.453841	-245.009925	99.333375	478.239835	-385.498526	59.673581	517.172481	-338.090008	45.273475	339.126842	-395.488304	319.124455	617.639131	-405.033221	264.818966	553.104661	-392.855257	180.421415	520.485940	-396.686593	279.538074	533.796867	-363.074884	84.449783	264.360267	-335.687287	-167.765994	823.801128	-218.905181	-78.205713	81.990860	-423.740464	-102.625766	80.550867	-24.392616	
1505	7.5250	707.558445	1338.450481	-41.440143	695.387721	1341.256434	-336.624147	692.828385	1354.922979	-181.830877	677.257735	1208.597812	-188.127938	569.741336	1107.381613	63.212219	627.692299	911.651355	3.585231	571.924306	1106.672321	-462.791835	651.972895	910.427626	-390.073956	158.945017	1163.838976	-208.245351	330.894162	1162.085422	-347.024626	333.816116	1142.147210	-58.386032	348.763187	1068.626994	-322.462805	310.748795	1057.788696	-70.436175	202.160794	1210.050232	-142.367517	217.394836	1216.915346	-253.669257	191.490201	1051.491866	-24.073585	233.562746	1042.048401	-399.005693	257.722772	911.109443	-1.954488	325.511197	853.716989	-11.187524	353.172512	773.137795	-19.478558	355.552813	876.385174	-14.328479	422.281375	677.240911	-37.735387	416.817289	668.514570	-150.554719	354.278701	584.263574	-8.234793	334.020816	499.198005	-24.155452	276.291015	434.940402	-26.282011	359.021475	490.036970	-52.137829	226.936399	345.314998	-41.622379	249.759483	361.254184	-122.709865	168.908653	327.421818	-89.250560	408.760136	286.925308	-81.586948	323.340869	267.574930	-21.247891	296.093175	921.822313	-409.462010	359.239869	864.124627	-393.750546	387.628599	884.410125	-382.365709	385.613509	779.838543	-385.584303	431.496816	677.253454	-362.999605	423.291598	672.758996	-242.357854	105.317225	486.950575	-384.972259	66.488348	526.565770	-338.099258	48.646215	348.917628	-395.326649	327.654443	621.754047	-402.904989	271.681624	557.752810	-390.572598	187.595617	526.556302	-395.484633	286.194984	539.048828	-360.167059	86.429043	273.271980	-335.577544	-167.656626	823.840750	-218.625782	-78.189946	81.937000	-423.700638	-102.616836	80.540302	-24.394716	
1506	7.5300	704.062702	1340.139166	-41.373416	697.177681	1342.336852	-337.506247	692.303472	1355.475939	-182.054632	677.353061	1209.256809	-189.232266	568.400687	1107.760070	62.483020	627.542829	911.627274	3.480010	573.512219	1107.263651	-463.825361	652.373990	910.406929	-390.967132	159.113534	1162.967409	-205.967864	329.137481	1161.250887	-346.662977	336.536432	1141.019370	-58.554774	347.041416	1067.876665	-322.014412	313.335565	1056.236543	-69.737029	204.067201	1208.438321	-141.388213	216.861429	1215.992301	-252.035359	193.703405	1049.393824	-22.414034	232.503185	1041.386997	-397.166856	258.052770	906.938041	-1.036202	323.631041	847.317071	-11.421959	348.430148	765.808098	-20.747346	354.565700	868.853958	-14.718945	413.546098	667.376568	-40.230551	407.845805	659.244330	-151.282769	345.900719	576.070990	-9.299537	327.388980	490.457358	-24.652733	270.934948	425.140350	-27.011474	352.658088	481.630654	-52.616409	222.414869	334.351382	-42.058037	245.204220	350.092881	-123.487824	164.620229	316.388821	-89.726138	404.648959	276.878593	-81.802876	319.253391	257.220134	-21.474700	296.682883	922.406941	-408.539173	361.184067	866.159392	-392.491148	389.047840	887.067752	-380.819408	389.357532	782.458677	-384.375582	438.912389	681.893148	-361.098683	428.899791	677.939842	-239.849277	111.327776	495.851380	-384.441377	73.029162	535.611903	-337.645811	52.635198	358.587614	-395.060605	335.981691	626.046152	-400.737566	279.034565	562.793343	-388.433257	194.248785	532.295794	-394.078290	294.417249	545.584107	-358.618163	89.267050	282.332097	-335.440270	-167.735851	823.746202	-218.920563	-78.190796	81.905396	-423.699118	-102.619358	80.531827	-24.393684	
